<?xml version="1.0" encoding="utf-8"?>
<!-- Generator: Adobe Illustrator 19.0.0, SVG Export Plug-In . SVG Version: 6.00 Build 0)  -->
<svg version="1.1" id="Layer_1" xmlns="http://www.w3.org/2000/svg" xmlns:xlink="http://www.w3.org/1999/xlink" x="0px" y="0px"
	 viewBox="-812 326.4 293.6 293.6" style="enable-background:new -812 326.4 293.6 293.6;" xml:space="preserve">
<style type="text/css">
	.st0{fill:#007BFF;}
</style>
<g>
	<g>
		<path class="st0" d="M-655.8,427.3v19.4c8,2.8,14.3,9.1,17.1,17.1h19.4C-623,445.5-637.5,431-655.8,427.3z"/>
		<path class="st0" d="M-638.7,482.6c-3.9,10.9-14.2,18.8-26.5,18.8c-15.5,0-28.1-12.6-28.1-28.1c0-12.2,7.8-22.6,18.8-26.5v-19.4
			c-21.4,4.3-37.5,23.2-37.5,45.9c0,25.9,21,46.9,46.9,46.9c22.7,0,41.6-16.1,45.9-37.5L-638.7,482.6L-638.7,482.6L-638.7,482.6z"/>
		<path class="st0" d="M-521,470.2c-2.4-2.7-58.6-67.3-144.2-67.3s-141.8,64.5-144.2,67.3l-2.6,3l2.6,3
			c2.4,2.7,58.6,67.3,144.2,67.3S-523.4,479-521,476.2l2.6-3L-521,470.2z M-604.3,473.2c0,33.6-27.3,60.9-60.9,60.9
			c-33.6,0-60.9-27.3-60.9-60.9s27.3-60.9,60.9-60.9S-604.3,439.6-604.3,473.2z M-799.4,473.2c9.5-9.9,42.6-41.3,90.2-54.7
			c-16,12.9-26.3,32.6-26.3,54.7c0,22.1,10.3,41.8,26.2,54.7C-756.8,514.5-789.9,483.1-799.4,473.2z M-621.2,527.9
			c16-12.9,26.3-32.6,26.3-54.7c0-22.1-10.3-41.8-26.2-54.7c47.5,13.5,80.6,44.8,90.2,54.7C-540.5,483.1-573.6,514.5-621.2,527.9z"
			/>
		<path class="st0" d="M-665.2,384.1c39.5,0,78.1,12.3,114.6,36.5l5.2-7.8c-37.5-24.9-78.9-38.1-119.8-38.1
			c-32.6,0-64.9,8.1-95.9,24.1l4.3,8.3C-727.1,391.9-696.3,384.1-665.2,384.1z"/>
		<path class="st0" d="M-766,412.2l-4.7-8.1c-5,2.9-9.8,5.8-14.3,8.8l5.2,7.8C-775.5,417.8-770.8,415-766,412.2z"/>
		<path class="st0" d="M-665.2,562.3c-39.5,0-78.1-12.3-114.6-36.5l-5.2,7.8c37.5,24.9,78.9,38.1,119.8,38.1
			c32.6,0,64.9-8.1,95.9-24.1l-4.3-8.3C-603.3,554.5-634.1,562.3-665.2,562.3z"/>
		<path class="st0" d="M-564.4,534.2l4.7,8.1c5-2.9,9.8-5.8,14.3-8.8l-5.2-7.8C-554.9,528.6-559.6,531.4-564.4,534.2z"/>
	</g>
</g>
</svg>
