<?xml version="1.0" encoding="utf-8"?>
<!-- Generator: Adobe Illustrator 19.0.0, SVG Export Plug-In . SVG Version: 6.00 Build 0)  -->
<svg version="1.1" id="Capa_1" xmlns="http://www.w3.org/2000/svg" xmlns:xlink="http://www.w3.org/1999/xlink" x="0px" y="0px"
	 viewBox="-809 323.9 299.1 299.1" style="enable-background:new -809 323.9 299.1 299.1;" xml:space="preserve">
<style type="text/css">
	.st0{fill:#007BFF;}
</style>
<g>
	<path class="st0" d="M-512.3,466c-2.7-3.6-66-87.6-147.1-87.6c-81,0-144.4,84-147.1,87.6c-3.3,4.4-3.3,10.5,0,14.9
		c2.7,3.6,66,87.6,147.1,87.6c81,0,144.4-84,147.1-87.6C-509.1,476.5-509.1,470.4-512.3,466z M-659.4,523.5
		c-27.6,0-50.1-22.5-50.1-50.1c0-27.6,22.5-50.1,50.1-50.1c27.6,0,50.1,22.5,50.1,50.1C-609.4,501-631.8,523.5-659.4,523.5z"/>
	<circle class="st0" cx="-659.4" cy="473.4" r="21.3"/>
</g>
</svg>
